<!-- <svg xmlns="http://www.w3.org/2000/svg" width="33" height="34" viewBox="0 0 33 34">
  <g fill="none" fill-rule="evenodd" stroke="#000" transform="matrix(1 0 0 -1 0 34)">
    <polyline stroke-linecap="round" points="4.81 32.607 .28 28.112 .28 .3 27.688 .3 27.688 28.112 10.068 28.112 10.068 10.133 22.373 10.133"/>
    <polyline stroke-linecap="round" points="28.19 .3 32.72 4.795 32.72 32.607 5.312 32.607 5.312 5.074 22.653 5.074 22.653 23.064 10.068 23.055"/>
    <path d="M5.31355932 5.07573214L10.3474576 10.413444M27.6864407 27.8312406L22.6525424 23.0553932"/>
  </g>
</svg> -->

<svg version="1.0" xmlns="http://www.w3.org/2000/svg"
 width="35.000000pt" height="35.000000pt" viewBox="0 0 108.000000 108.000000"
 preserveAspectRatio="xMidYMid meet">

<g transform="translate(0.000000,108.000000) scale(0.100000,-0.100000)"
fill="#3d85c6" stroke="none">
<path d="M330 1013 c-50 -18 -68 -84 -32 -116 34 -31 102 -17 102 21 0 10 -8
8 -27 -7 -23 -19 -29 -20 -47 -8 -28 19 -33 67 -10 84 24 17 39 16 59 -3 9 -9
19 -13 23 -9 4 4 -4 15 -17 26 -25 20 -27 21 -51 12z"/>
<path d="M480 1013 c-41 -14 -55 -87 -22 -116 25 -22 75 -21 95 1 45 50 -10
137 -73 115z m54 -29 c22 -22 20 -60 -5 -77 -54 -38 -103 39 -51 81 21 16 37
15 56 -4z"/>
<path d="M610 950 c0 -40 4 -70 10 -70 6 0 10 30 10 70 0 40 -4 70 -10 70 -6
0 -10 -30 -10 -70z"/>
<path d="M778 1015 c-3 -3 -3 -26 0 -50 2 -25 1 -45 -4 -45 -5 0 -20 20 -34
45 -36 66 -54 60 -58 -20 -1 -37 2 -65 7 -65 6 0 11 23 13 52 l3 51 35 -51
c19 -29 40 -52 45 -52 6 0 9 28 9 66 -2 64 -5 79 -16 69z"/>
<path d="M70 531 l0 -71 40 0 c22 0 40 5 40 10 0 6 -13 10 -30 10 -30 0 -30 1
-30 54 0 30 -4 58 -10 61 -6 4 -10 -20 -10 -64z"/>
<path d="M212 548 c-11 -29 -23 -61 -27 -70 -4 -10 -3 -18 3 -18 6 0 14 9 17
20 5 14 15 20 37 20 21 0 31 -6 35 -20 3 -11 11 -20 18 -20 15 0 -36 132 -53
138 -5 1 -18 -21 -30 -50z m42 0 c9 -34 8 -37 -14 -35 -13 1 -19 6 -15 15 3 7
5 20 5 28 0 22 17 16 24 -8z"/>
<path d="M339 593 c-4 -33 5 -110 13 -120 13 -16 50 -17 66 -1 15 15 17 132 2
123 -5 -3 -10 -31 -10 -61 0 -51 -1 -54 -25 -54 -24 0 -25 3 -25 60 0 33 -4
60 -10 60 -5 0 -10 -3 -11 -7z"/>
<path d="M486 593 c-10 -11 -7 -133 4 -133 6 0 10 26 10 58 l1 57 35 -55 c19
-30 39 -56 44 -58 6 -2 10 22 10 57 0 34 0 64 1 68 0 4 -5 9 -11 11 -9 3 -11
-9 -6 -47 3 -28 3 -51 -2 -51 -4 0 -18 20 -32 45 -24 44 -42 60 -54 48z"/>
<path d="M649 594 c-1 -2 -2 -33 -3 -69 l-1 -65 31 0 c46 0 77 29 76 70 0 18
-7 39 -15 47 -13 13 -85 27 -88 17z m76 -38 c24 -36 5 -76 -35 -76 -29 0 -30
1 -30 50 0 47 2 50 25 50 15 0 31 -9 40 -24z"/>
<path d="M800 529 c0 -39 4 -69 10 -69 6 0 10 14 10 30 0 17 4 30 9 30 5 0 14
-13 21 -30 7 -16 19 -30 27 -30 13 0 13 4 -1 25 -15 23 -15 27 -1 41 17 18 20
50 5 59 -6 4 -26 8 -45 9 l-35 3 0 -68z m65 26 c0 -13 -8 -21 -22 -23 -19 -3
-23 1 -23 23 0 22 4 26 23 23 14 -2 22 -10 22 -23z"/>
<path d="M920 593 c0 -5 9 -21 20 -38 11 -16 20 -45 20 -62 0 -18 5 -33 10
-33 6 0 10 12 10 28 0 15 11 44 25 64 28 41 30 48 15 48 -6 0 -19 -14 -29 -31
l-19 -31 -18 31 c-17 29 -34 41 -34 24z"/>
<path d="M315 168 c-27 -15 -35 -28 -35 -60 0 -32 35 -68 66 -68 25 0 72 35
62 46 -5 4 -16 0 -26 -9 -27 -25 -60 -21 -74 8 -25 55 30 98 74 58 10 -9 21
-13 26 -9 9 10 -35 46 -57 46 -9 0 -25 -6 -36 -12z"/>
<path d="M460 118 c-14 -35 -26 -66 -28 -70 -2 -5 2 -8 8 -8 7 0 14 9 17 20 4
15 14 20 39 20 23 0 34 -5 34 -14 0 -15 18 -31 26 -24 2 3 -5 22 -15 44 -11
22 -23 52 -26 67 -11 43 -28 32 -55 -35z m47 -14 c-3 -3 -12 -4 -20 -2 -11 2
-12 9 -5 28 l10 25 11 -23 c5 -12 8 -25 4 -28z"/>
<path d="M594 166 c-9 -23 0 -121 11 -118 6 2 9 14 7 27 -3 22 0 25 27 25 17
0 31 5 31 10 0 6 -13 10 -30 10 -23 0 -30 4 -30 20 0 16 7 20 35 20 19 0 35 5
35 10 0 16 -80 12 -86 -4z"/>
<path d="M720 110 l0 -70 40 0 c22 0 40 5 40 10 0 6 -16 10 -35 10 -28 0 -35
4 -35 20 0 16 7 20 30 20 17 0 30 5 30 10 0 6 -13 10 -30 10 -23 0 -30 4 -30
20 0 16 7 20 35 20 19 0 35 5 35 10 0 6 -18 10 -40 10 l-40 0 0 -70z"/>
</g>
</svg>
